<svg width="21" height="18" viewBox="0 0 21 18" fill="none" xmlns="http://www.w3.org/2000/svg">
    <path d="M19.16 2C18.1 0.937205 16.6948 0.288538 15.1984 0.171168C13.7019 0.0537975 12.2128 0.475464 11 1.36C9.72769 0.413635 8.14402 -0.0154912 6.56795 0.159035C4.99188 0.333561 3.54047 1.09878 2.506 2.30058C1.47154 3.50239 0.930854 5.05152 0.992833 6.63601C1.05481 8.2205 1.71485 9.72267 2.84003 10.84L9.05003 17.06C9.57005 17.5718 10.2704 17.8586 11 17.8586C11.7296 17.8586 12.43 17.5718 12.95 17.06L19.16 10.84C20.3276 9.66526 20.983 8.07627 20.983 6.42C20.983 4.76372 20.3276 3.17473 19.16 2ZM17.75 9.46L11.54 15.67C11.4694 15.7414 11.3853 15.798 11.2926 15.8366C11.1999 15.8753 11.1005 15.8952 11 15.8952C10.8996 15.8952 10.8002 15.8753 10.7075 15.8366C10.6148 15.798 10.5307 15.7414 10.46 15.67L4.25003 9.43C3.46579 8.62834 3.02664 7.55146 3.02664 6.43C3.02664 5.30853 3.46579 4.23165 4.25003 3.43C5.04919 2.64099 6.127 2.19857 7.25003 2.19857C8.37306 2.19857 9.45088 2.64099 10.25 3.43C10.343 3.52373 10.4536 3.59812 10.5755 3.64889C10.6973 3.69966 10.828 3.7258 10.96 3.7258C11.092 3.7258 11.2227 3.69966 11.3446 3.64889C11.4665 3.59812 11.5771 3.52373 11.67 3.43C12.4692 2.64099 13.547 2.19857 14.67 2.19857C15.7931 2.19857 16.8709 2.64099 17.67 3.43C18.4651 4.22115 18.9186 5.29219 18.9336 6.41368C18.9485 7.53518 18.5237 8.61793 17.75 9.43V9.46Z" fill="#868E96"/>
</svg>
