<svg width="21" height="12" viewBox="0 0 21 12" fill="none" xmlns="http://www.w3.org/2000/svg">
    <path d="M2.45999 10.29C2.36488 10.199 2.25274 10.1276 2.12999 10.08C1.88653 9.97998 1.61345 9.97998 1.36999 10.08C1.24724 10.1276 1.13509 10.199 1.03999 10.29C0.948948 10.3851 0.877583 10.4972 0.829988 10.62C0.753409 10.8021 0.732486 11.0028 0.76986 11.1968C0.807235 11.3908 0.901231 11.5694 1.03999 11.71C1.13719 11.7983 1.2488 11.8694 1.36999 11.92C1.48969 11.9729 1.61912 12.0002 1.74999 12.0002C1.88086 12.0002 2.01029 11.9729 2.12999 11.92C2.25117 11.8694 2.36279 11.7983 2.45999 11.71C2.59875 11.5694 2.69274 11.3908 2.73012 11.1968C2.76749 11.0028 2.74657 10.8021 2.66999 10.62C2.62239 10.4972 2.55103 10.3851 2.45999 10.29ZM5.74999 2H19.75C20.0152 2 20.2696 1.89464 20.4571 1.70711C20.6446 1.51957 20.75 1.26522 20.75 1C20.75 0.734784 20.6446 0.48043 20.4571 0.292893C20.2696 0.105357 20.0152 0 19.75 0H5.74999C5.48477 0 5.23042 0.105357 5.04288 0.292893C4.85535 0.48043 4.74999 0.734784 4.74999 1C4.74999 1.26522 4.85535 1.51957 5.04288 1.70711C5.23042 1.89464 5.48477 2 5.74999 2ZM2.45999 5.29C2.31936 5.15124 2.14079 5.05725 1.9468 5.01987C1.75281 4.9825 1.5521 5.00342 1.36999 5.08C1.2488 5.13064 1.13719 5.20167 1.03999 5.29C0.948948 5.3851 0.877583 5.49725 0.829988 5.62C0.777083 5.7397 0.749756 5.86913 0.749756 6C0.749756 6.13087 0.777083 6.2603 0.829988 6.38C0.88063 6.50118 0.951657 6.6128 1.03999 6.71C1.13719 6.79833 1.2488 6.86936 1.36999 6.92C1.48969 6.97291 1.61912 7.00023 1.74999 7.00023C1.88086 7.00023 2.01029 6.97291 2.12999 6.92C2.25117 6.86936 2.36279 6.79833 2.45999 6.71C2.54832 6.6128 2.61935 6.50118 2.66999 6.38C2.72289 6.2603 2.75022 6.13087 2.75022 6C2.75022 5.86913 2.72289 5.7397 2.66999 5.62C2.62239 5.49725 2.55103 5.3851 2.45999 5.29ZM19.75 5H5.74999C5.48477 5 5.23042 5.10536 5.04288 5.29289C4.85535 5.48043 4.74999 5.73478 4.74999 6C4.74999 6.26522 4.85535 6.51957 5.04288 6.70711C5.23042 6.89464 5.48477 7 5.74999 7H19.75C20.0152 7 20.2696 6.89464 20.4571 6.70711C20.6446 6.51957 20.75 6.26522 20.75 6C20.75 5.73478 20.6446 5.48043 20.4571 5.29289C20.2696 5.10536 20.0152 5 19.75 5ZM2.45999 0.29C2.36488 0.198959 2.25274 0.127594 2.12999 0.0799999C1.94788 0.00342049 1.74716 -0.0175019 1.55317 0.0198722C1.35919 0.0572463 1.18061 0.151242 1.03999 0.29C0.951657 0.387201 0.88063 0.498815 0.829988 0.62C0.777083 0.7397 0.749756 0.869129 0.749756 1C0.749756 1.13087 0.777083 1.2603 0.829988 1.38C0.88063 1.50119 0.951657 1.6128 1.03999 1.71C1.13719 1.79833 1.2488 1.86936 1.36999 1.92C1.5521 1.99658 1.75281 2.0175 1.9468 1.98013C2.14079 1.94275 2.31936 1.84876 2.45999 1.71C2.54832 1.6128 2.61935 1.50119 2.66999 1.38C2.72289 1.2603 2.75022 1.13087 2.75022 1C2.75022 0.869129 2.72289 0.7397 2.66999 0.62C2.61935 0.498815 2.54832 0.387201 2.45999 0.29ZM19.75 10H5.74999C5.48477 10 5.23042 10.1054 5.04288 10.2929C4.85535 10.4804 4.74999 10.7348 4.74999 11C4.74999 11.2652 4.85535 11.5196 5.04288 11.7071C5.23042 11.8946 5.48477 12 5.74999 12H19.75C20.0152 12 20.2696 11.8946 20.4571 11.7071C20.6446 11.5196 20.75 11.2652 20.75 11C20.75 10.7348 20.6446 10.4804 20.4571 10.2929C20.2696 10.1054 20.0152 10 19.75 10Z" fill="#898996"/>
</svg>
